<?xml version="1.0" encoding="UTF-8" standalone="no"?>
<!DOCTYPE svg PUBLIC "-//W3C//DTD SVG 1.1//EN"
 "http://www.w3.org/Graphics/SVG/1.1/DTD/svg11.dtd">
<!-- Generated by graphviz version 2.36.0 (20140111.2315)
 -->
<!-- Title: Automaton Pages: 1 -->
<svg width="328pt" height="192pt"
 viewBox="0.00 0.00 328.00 192.00" xmlns="http://www.w3.org/2000/svg" xmlns:xlink="http://www.w3.org/1999/xlink">
<g id="graph0" class="graph" transform="scale(1 1) rotate(0) translate(4 188)">
<title>Automaton</title>
<polygon fill="white" stroke="none" points="-4,4 -4,-188 324,-188 324,4 -4,4"/>
<!-- 0 -->
<g id="node1" class="node"><title>0</title>
<ellipse fill="none" stroke="black" cx="204" cy="-63" rx="18" ry="18"/>
<text text-anchor="middle" x="204" y="-58.8" font-family="Times,serif" font-size="14.00">0</text>
</g>
<!-- 0&#45;&gt;0 -->
<g id="edge2" class="edge"><title>0&#45;&gt;0</title>
<path fill="none" stroke="black" d="M197.266,-80.0373C195.892,-89.8579 198.137,-99 204,-99 207.665,-99 209.916,-95.4289 210.753,-90.3529"/>
<polygon fill="black" stroke="black" points="214.252,-90.0307 210.734,-80.0373 207.252,-90.0439 214.252,-90.0307"/>
<text text-anchor="middle" x="204" y="-101.8" font-family="Times,serif" font-size="14.00">a</text>
</g>
<!-- 2 -->
<g id="node3" class="node"><title>2</title>
<ellipse fill="none" stroke="black" cx="298" cy="-63" rx="18" ry="18"/>
<ellipse fill="none" stroke="black" cx="298" cy="-63" rx="22" ry="22"/>
<text text-anchor="middle" x="298" y="-58.8" font-family="Times,serif" font-size="14.00">2</text>
</g>
<!-- 0&#45;&gt;2 -->
<g id="edge3" class="edge"><title>0&#45;&gt;2</title>
<path fill="none" stroke="black" d="M222.304,-63C234.535,-63 251.271,-63 265.802,-63"/>
<polygon fill="black" stroke="black" points="265.897,-66.5001 275.897,-63 265.897,-59.5001 265.897,-66.5001"/>
<text text-anchor="middle" x="249" y="-65.8" font-family="Times,serif" font-size="14.00">a,b</text>
</g>
<!-- 1 -->
<g id="node2" class="node"><title>1</title>
<ellipse fill="none" stroke="black" cx="18" cy="-113" rx="18" ry="18"/>
<text text-anchor="middle" x="18" y="-108.8" font-family="Times,serif" font-size="14.00">1</text>
</g>
<!-- 1&#45;&gt;1 -->
<g id="edge4" class="edge"><title>1&#45;&gt;1</title>
<path fill="none" stroke="black" d="M10.3321,-129.29C8.48309,-139.389 11.0391,-149 18,-149 22.4594,-149 25.1109,-145.056 25.9546,-139.566"/>
<polygon fill="black" stroke="black" points="29.4456,-139.189 25.6679,-129.29 22.4483,-139.384 29.4456,-139.189"/>
<text text-anchor="middle" x="18" y="-151.8" font-family="Times,serif" font-size="14.00">b</text>
</g>
<!-- 3 -->
<g id="node4" class="node"><title>3</title>
<ellipse fill="none" stroke="black" cx="117" cy="-166" rx="18" ry="18"/>
<text text-anchor="middle" x="117" y="-161.8" font-family="Times,serif" font-size="14.00">3</text>
</g>
<!-- 1&#45;&gt;3 -->
<g id="edge5" class="edge"><title>1&#45;&gt;3</title>
<path fill="none" stroke="black" d="M34.1562,-121.281C49.6743,-129.76 74.0193,-143.062 92.1284,-152.957"/>
<polygon fill="black" stroke="black" points="90.4965,-156.053 100.95,-157.777 93.8529,-149.911 90.4965,-156.053"/>
<text text-anchor="middle" x="63" y="-143.8" font-family="Times,serif" font-size="14.00">a</text>
</g>
<!-- 4 -->
<g id="node5" class="node"><title>4</title>
<ellipse fill="none" stroke="black" cx="117" cy="-76" rx="18" ry="18"/>
<ellipse fill="none" stroke="black" cx="117" cy="-76" rx="22" ry="22"/>
<text text-anchor="middle" x="117" y="-71.8" font-family="Times,serif" font-size="14.00">4</text>
</g>
<!-- 1&#45;&gt;4 -->
<g id="edge6" class="edge"><title>1&#45;&gt;4</title>
<path fill="none" stroke="black" d="M35.0176,-106.89C49.0519,-101.537 69.802,-93.6219 86.7842,-87.1442"/>
<polygon fill="black" stroke="black" points="88.1724,-90.3607 96.2683,-83.5265 85.6775,-83.8204 88.1724,-90.3607"/>
<text text-anchor="middle" x="63" y="-100.8" font-family="Times,serif" font-size="14.00">a</text>
</g>
<!-- 3&#45;&gt;0 -->
<g id="edge7" class="edge"><title>3&#45;&gt;0</title>
<path fill="none" stroke="black" d="M130.454,-153.623C134.843,-149.117 139.742,-143.921 144,-139 159.076,-121.578 175.034,-100.867 186.547,-85.4692"/>
<polygon fill="black" stroke="black" points="189.622,-87.198 192.771,-77.0819 184.001,-83.0262 189.622,-87.198"/>
<text text-anchor="middle" x="165" y="-118.8" font-family="Times,serif" font-size="14.00">a</text>
</g>
<!-- 4&#45;&gt;1 -->
<g id="edge8" class="edge"><title>4&#45;&gt;1</title>
<path fill="none" stroke="black" d="M95.3275,-71.4669C82.8478,-69.7314 66.9155,-69.3368 54,-75 46.6586,-78.2191 40.1772,-83.8221 34.8503,-89.7522"/>
<polygon fill="black" stroke="black" points="31.8764,-87.8647 28.3294,-97.8481 37.328,-92.2557 31.8764,-87.8647"/>
<text text-anchor="middle" x="63" y="-77.8" font-family="Times,serif" font-size="14.00">a,b</text>
</g>
<!-- 4&#45;&gt;4 -->
<g id="edge9" class="edge"><title>4&#45;&gt;4</title>
<path fill="none" stroke="black" d="M108.266,-96.5808C107.057,-106.845 109.969,-116 117,-116 121.504,-116 124.318,-112.243 125.441,-106.844"/>
<polygon fill="black" stroke="black" points="128.947,-106.677 125.734,-96.5808 121.95,-106.477 128.947,-106.677"/>
<text text-anchor="middle" x="117" y="-118.8" font-family="Times,serif" font-size="14.00">b</text>
</g>
<g id="node6" class="node"><title></title>
</g>
<!-- &#45;&gt;0 -->
<g id="edge1" class="edge"><title>&#45;&gt;0</title>
<path fill="none" stroke="black" d="M144.429,-31.9916C155.435,-37.8185 168.128,-44.5382 178.878,-50.2293"/>
<polygon fill="black" stroke="black" points="177.258,-53.3319 187.733,-54.9176 180.533,-47.1454 177.258,-53.3319"/>
</g>
</g>
</svg>
